<svg width="46" height="42" viewBox="0 0 46 42" fill="none" xmlns="http://www.w3.org/2000/svg">
<path d="M23 2.238C23.1367 2.24191 23.2656 2.29269 23.3594 2.39034L43.1014 22.1283C43.2459 22.2729 43.2928 22.4877 43.2147 22.6791C43.1404 22.8666 42.9529 22.9916 42.7498 22.9877H37.41V39.2607C37.4061 39.5381 37.1796 39.7607 36.8983 39.7607H27.9999C27.7226 39.7607 27.4999 39.5342 27.4999 39.2607V29.2097C27.496 28.9324 27.2694 28.7097 26.9882 28.7097H18.9999C18.7225 28.7097 18.496 28.9324 18.4882 29.2097V39.2607C18.4882 39.3935 18.4374 39.5185 18.3436 39.6123C18.2499 39.706 18.121 39.7607 17.9882 39.7607H9.10146C8.82021 39.7607 8.59365 39.5381 8.58974 39.2607V22.9987H3.24994C3.04682 22.9987 2.85932 22.8776 2.7851 22.6862C2.70698 22.4987 2.75385 22.28 2.89838 22.1393L22.6404 2.38933C22.7341 2.29167 22.863 2.24089 22.9998 2.23699M22.9998 -0.0013106C22.2498 -0.0169356 21.5271 0.276029 20.9998 0.807279L1.30876 20.5373C0.519701 21.3224 0.28146 22.5061 0.7072 23.5373C1.13294 24.5685 2.1369 25.2404 3.2502 25.2365H6.34V39.2365C6.34 40.7638 7.5744 41.9982 9.1017 41.9982H18.0001C19.5196 41.9982 20.7501 40.7677 20.7501 39.2482V30.9982H25.2892V39.299C25.3165 40.7834 26.5158 41.9787 28.0001 41.9982H36.8985C38.4219 41.9982 39.6563 40.7677 39.6602 39.2482V25.2482H42.75C43.8633 25.2482 44.8672 24.5763 45.293 23.549C45.7188 22.5178 45.4805 21.3342 44.6914 20.549L25.0004 0.79898C24.4692 0.26773 23.7459 -0.0169406 22.9998 -0.0013106Z" fill="#494949"/>
</svg>
